<?xml version="1.0" encoding="UTF-8"?>
<svg xmlns="http://www.w3.org/2000/svg" xmlns:xlink="http://www.w3.org/1999/xlink" width="20pt" height="20pt" viewBox="0 0 20 20" version="1.1">
<g id="surface8681220">
<rect x="0" y="0" width="20" height="20" style="fill:rgb(20%,20%,20%);fill-opacity:1;stroke:none;"/>
<path style=" stroke:none;fill-rule:nonzero;fill:rgb(52.156863%,52.156863%,80%);fill-opacity:1;" d="M 15.25 19.25 C 17.460938 19.25 19.25 17.460938 19.25 15.25 L 19.25 4.75 C 19.25 2.539062 17.460938 0.75 15.25 0.75 L 4.75 0.75 C 2.539062 0.75 0.75 2.539062 0.75 4.75 L 0.75 15.25 C 0.75 17.460938 2.539062 19.25 4.75 19.25 Z M 15.25 19.25 "/>
<path style=" stroke:none;fill-rule:nonzero;fill:rgb(55.294118%,55.294118%,84.705882%);fill-opacity:1;" d="M 1.699219 2.164062 C 1.109375 2.863281 0.75 3.765625 0.75 4.75 L 0.75 15.25 C 0.75 17.460938 2.539062 19.25 4.75 19.25 L 15.25 19.25 C 17.460938 19.25 19.25 17.460938 19.25 15.25 L 19.25 4.75 C 19.25 4.5 19.222656 4.253906 19.179688 4.015625 C 16.066406 2.109375 12.414062 1 8.5 1 C 6.113281 1 3.828125 1.414062 1.699219 2.164062 Z M 1.699219 2.164062 "/>
<path style=" stroke:none;fill-rule:nonzero;fill:rgb(74.117647%,50.980392%,95.686275%);fill-opacity:1;" d="M 0.753906 4.703125 C 0.753906 4.71875 0.75 4.734375 0.75 4.75 L 0.75 15.25 C 0.75 17.460938 2.539062 19.25 4.75 19.25 L 15.25 19.25 C 17.460938 19.25 19.25 17.460938 19.25 15.25 L 19.25 6.449219 C 16.21875 4.28125 12.511719 3 8.5 3 C 5.734375 3 3.109375 3.613281 0.753906 4.703125 Z M 0.753906 4.703125 "/>
<path style=" stroke:none;fill-rule:nonzero;fill:rgb(92.941176%,45.098039%,95.686275%);fill-opacity:1;" d="M 0.75 6.941406 L 0.75 15.25 C 0.75 17.460938 2.539062 19.25 4.75 19.25 L 15.25 19.25 C 17.460938 19.25 19.25 17.460938 19.25 15.25 L 19.25 8.992188 C 16.363281 6.507812 12.609375 5 8.5 5 C 5.695312 5 3.0625 5.707031 0.75 6.941406 Z M 0.75 6.941406 "/>
<path style=" stroke:none;fill-rule:nonzero;fill:rgb(97.647059%,49.019608%,80.392157%);fill-opacity:1;" d="M 8.5 7 C 5.648438 7 2.992188 7.832031 0.75 9.253906 L 0.75 15.25 C 0.75 17.460938 2.539062 19.25 4.75 19.25 L 15.25 19.25 C 17.460938 19.25 19.25 17.460938 19.25 15.25 L 19.25 11.78125 C 16.597656 8.847656 12.765625 7 8.5 7 Z M 8.5 7 "/>
<path style=" stroke:none;fill-rule:nonzero;fill:rgb(98.823529%,61.176471%,58.431373%);fill-opacity:1;" d="M 8.5 9 C 5.570312 9 2.882812 10.015625 0.75 11.707031 L 0.75 15.25 C 0.75 17.460938 2.539062 19.25 4.75 19.25 L 15.25 19.25 C 17.460938 19.25 19.25 17.460938 19.25 15.25 L 19.25 15.132812 C 17.070312 11.460938 13.074219 9 8.5 9 Z M 8.5 9 "/>
<path style=" stroke:none;fill-rule:nonzero;fill:rgb(100%,67.45098%,60%);fill-opacity:1;" d="M 8.5 11 C 5.425781 11 2.671875 12.324219 0.75 14.429688 L 0.75 15.25 C 0.75 17.460938 2.539062 19.25 4.75 19.25 L 15.25 19.25 C 16.484375 19.25 17.585938 18.691406 18.316406 17.816406 C 16.824219 13.835938 13 11 8.5 11 Z M 8.5 11 "/>
<path style=" stroke:none;fill-rule:nonzero;fill:rgb(100%,76.862745%,61.176471%);fill-opacity:1;" d="M 15.25 19.25 C 15.726562 19.25 16.183594 19.160156 16.609375 19.007812 C 15.542969 15.53125 12.324219 13 8.5 13 C 5.40625 13 2.703125 14.65625 1.21875 17.125 C 1.890625 18.386719 3.21875 19.25 4.75 19.25 Z M 15.25 19.25 "/>
<path style=" stroke:none;fill-rule:nonzero;fill:rgb(100%,87.058824%,55.294118%);fill-opacity:1;" d="M 8.5 15 C 5.929688 15 3.714844 16.492188 2.65625 18.65625 C 3.265625 19.03125 3.980469 19.25 4.75 19.25 L 14.589844 19.25 C 13.675781 16.769531 11.296875 15 8.5 15 Z M 8.5 15 "/>
<path style=" stroke:none;fill-rule:nonzero;fill:rgb(100%,96.470588%,62.352941%);fill-opacity:1;" d="M 8.5 17 C 6.839844 17 5.402344 17.90625 4.625 19.242188 C 4.664062 19.246094 4.707031 19.25 4.75 19.25 L 12.378906 19.25 C 11.601562 17.910156 10.160156 17 8.5 17 Z M 8.5 17 "/>
<path style=" stroke:none;fill-rule:nonzero;fill:rgb(54.509804%,45.882353%,63.137255%);fill-opacity:1;" d="M 15.5 1 C 17.429688 1 19 2.570312 19 4.5 L 19 15.5 C 19 17.429688 17.429688 19 15.5 19 L 4.5 19 C 2.570312 19 1 17.429688 1 15.5 L 1 4.5 C 1 2.570312 2.570312 1 4.5 1 L 15.5 1 M 15.5 0.5 L 4.5 0.5 C 2.289062 0.5 0.5 2.289062 0.5 4.5 L 0.5 15.5 C 0.5 17.710938 2.289062 19.5 4.5 19.5 L 15.5 19.5 C 17.710938 19.5 19.5 17.710938 19.5 15.5 L 19.5 4.5 C 19.5 2.289062 17.710938 0.5 15.5 0.5 Z M 15.5 0.5 "/>
<path style=" stroke:none;fill-rule:nonzero;fill:rgb(100%,100%,100%);fill-opacity:1;" d="M 13.75 5.5 C 13.335938 5.5 13 5.835938 13 6.25 C 13 6.664062 13.335938 7 13.75 7 C 14.164062 7 14.5 6.664062 14.5 6.25 C 14.5 5.835938 14.164062 5.5 13.75 5.5 Z M 13.75 5.5 "/>
<path style="fill:none;stroke-width:8.6;stroke-linecap:butt;stroke-linejoin:miter;stroke:rgb(100%,100%,100%);stroke-opacity:1;stroke-miterlimit:10;" d="M 86 60.2 C 71.75625 60.2 60.2 71.75625 60.2 86 C 60.2 100.24375 71.75625 111.8 86 111.8 C 100.24375 111.8 111.8 100.24375 111.8 86 C 111.8 71.75625 100.24375 60.2 86 60.2 Z M 86 60.2 " transform="matrix(0.116279,0,0,0.116279,0,0)"/>
<path style="fill:none;stroke-width:8.6;stroke-linecap:butt;stroke-linejoin:miter;stroke:rgb(100%,100%,100%);stroke-opacity:1;stroke-miterlimit:10;" d="M 141.9 62.35 C 141.9 44.545313 127.454687 30.1 109.65 30.1 C 100.277344 30.1 71.722656 30.1 62.35 30.1 C 44.545313 30.1 30.1 44.545313 30.1 62.35 C 30.1 71.722656 30.1 100.277344 30.1 109.65 C 30.1 127.454687 44.545313 141.9 62.35 141.9 C 71.722656 141.9 100.277344 141.9 109.65 141.9 C 127.454687 141.9 141.9 127.454687 141.9 109.65 C 141.9 100.277344 141.9 71.722656 141.9 62.35 Z M 141.9 62.35 " transform="matrix(0.116279,0,0,0.116279,0,0)"/>
</g>
</svg>
